<?xml version="1.0"?>
<svg xmlns="http://www.w3.org/2000/svg" height="512px" viewBox="0 0 448 448" width="512px"><path d="m160 184.28125c0 13.253906-10.746094 24-24 24s-24-10.746094-24-24c0-13.257812 10.746094-24 24-24s24 10.742188 24 24zm0 0" fill="#FFFFFF"/><path d="m164.289062 261.34375c6.421876-5.859375 14.074219-10.199219 22.398438-12.703125 20.554688-5.929687 32.921875-26.855469 28.207031-47.71875-1.984375-8.40625-1.984375-17.15625 0-25.5625 4.710938-20.863281-7.652343-41.78125-28.199219-47.71875-8.324218-2.5-15.980468-6.835937-22.398437-12.695313-16.058594-14.546874-40.527344-14.546874-56.585937 0-6.417969 5.859376-14.074219 10.203126-22.398438 12.703126-20.550781 5.933593-32.917969 26.855468-28.207031 47.71875 1.984375 8.40625 1.984375 17.15625 0 25.5625-4.714844 20.863281 7.648437 41.785156 28.199219 47.71875 8.324218 2.503906 15.980468 6.84375 22.398437 12.703124 16.066406 14.53125 40.523437 14.527344 56.585937-.007812zm-20.289062-141.34375h16v16h-16zm-48 112h-16v-16h16zm0-47.71875c0-22.09375 17.910156-40 40-40s40 17.90625 40 40c0 22.089844-17.910156 40-40 40-22.082031-.027344-39.972656-17.921875-40-40zm0 0" fill="#FFFFFF"/><path d="m284.425781 359.199219c-7.828125-3.894531-17.023437-3.894531-24.851562 0-12.332031 6.121093-26.816407 6.121093-39.148438 0-7.828125-3.894531-17.023437-3.894531-24.851562 0-12.332031 6.121093-26.816407 6.121093-39.148438 0-7.828125-3.894531-17.023437-3.894531-24.851562 0l-11.574219 5.746093v14.109376l4.425781-2.214844c12.332031-6.121094 26.816407-6.121094 39.148438 0 7.828125 3.894531 17.023437 3.894531 24.851562 0 12.332031-6.121094 26.816407-6.121094 39.148438 0 7.828125 3.894531 17.023437 3.894531 24.851562 0 12.328125-6.132813 26.820313-6.132813 39.148438 0 7.828125 3.894531 17.023437 3.894531 24.851562 0l11.574219-5.785156v-14.109376l-4.425781 2.214844c-12.324219 6.132813-26.8125 6.148438-39.148438.039063zm0 0" fill="#FFFFFF"/><path d="m284.425781 327.199219c-7.828125-3.894531-17.023437-3.894531-24.851562 0-12.332031 6.121093-26.816407 6.121093-39.148438 0-7.828125-3.894531-17.023437-3.894531-24.851562 0-12.332031 6.121093-26.816407 6.121093-39.148438 0-7.828125-3.894531-17.023437-3.894531-24.851562 0l-11.574219 5.746093v14.109376l4.425781-2.214844c12.332031-6.121094 26.816407-6.121094 39.148438 0 7.828125 3.894531 17.023437 3.894531 24.851562 0 12.332031-6.121094 26.816407-6.121094 39.148438 0 7.828125 3.894531 17.023437 3.894531 24.851562 0 12.332031-6.121094 26.816407-6.121094 39.148438 0 7.828125 3.894531 17.023437 3.894531 24.851562 0l11.574219-5.785156v-14.109376l-4.425781 2.214844c-12.324219 6.132813-26.8125 6.148438-39.148438.039063zm0 0" fill="#FFFFFF"/><path d="m360.695312 93.257812c-2.667968-3.351562-6.730468-5.289062-11.015624-5.257812-2.984376-.007812-5.890626.929688-8.3125 2.671875-2.835938 1.984375-4.734376 5.046875-5.246094 8.472656-.464844 3.289063.445312 6.621094 2.519531 9.214844 5.175781 6.671875 9.652344 13.859375 13.359375 21.449219v-9.808594h16v16h-13.089844c13.042969 30.671875 13.042969 65.328125 0 96h13.089844v16h-16v-9.800781c-3.703125 7.589843-8.175781 14.777343-13.351562 21.449219-2.082032 2.597656-2.996094 5.941406-2.527344 9.238281.507812 3.414062 2.394531 6.46875 5.222656 8.449219 6.152344 4.25 14.523438 3.132812 19.34375-2.582032 41.738281-53.300781 41.742188-128.195312.007812-181.496094zm7.304688 98.742188v-16h16v16zm0 0" fill="#FFFFFF"/><path d="m224 0c-123.710938 0-224 100.289062-224 224s100.289062 224 224 224 224-100.289062 224-224c-.140625-123.652344-100.347656-223.859375-224-224zm-30.3125 44.800781c8.203125-13.863281 25.824219-18.875 40.097656-11.410156 66.171875 35.375 99.679688 111.328125 81.191406 184.050781-2.269531 8.949219-8.570312 16.339844-17.046874 20-5.777344 2.566406-12.21875 3.246094-18.402344 1.933594-7.652344-1.546875-14.332032-6.175781-18.464844-12.800781-4.066406-6.511719-5.273438-14.414063-3.335938-21.847657 12.078126-47.574218-9.84375-97.25-53.125-120.398437-6.792968-3.582031-11.808593-9.804687-13.875-17.199219-2.128906-7.535156-1.058593-15.613281 2.960938-22.328125zm102.3125 235.199219v16h-16v-16zm-152-224h16v16h-16zm-72 248h-16v-16h16zm8.6875-40c-28.671875-8.359375-45.863281-37.621094-39.199219-66.734375 1.40625-5.980469 1.40625-12.207031 0-18.1875-6.664062-29.113281 10.527344-58.375 39.199219-66.734375 6.023438-1.808594 11.558594-4.941406 16.207031-9.175781 22.199219-20.085938 56.003907-20.085938 78.203125 0 4.648438 4.230469 10.1875 7.363281 16.207032 9.167969 28.671874 8.359374 45.863281 37.621093 39.199218 66.734374-1.40625 5.980469-1.40625 12.207032 0 18.1875 6.667969 29.117188-10.523437 58.382813-39.199218 66.742188-6.019532 1.804688-11.558594 4.941406-16.199219 9.175781-22.203125 20.085938-56.007813 20.085938-78.210938 0-4.644531-4.234375-10.183593-7.371093-16.207031-9.175781zm159.3125-8v16h-16v-16zm104 120c.015625 3.046875-1.699219 5.839844-4.425781 7.199219l-16 8c-12.332031 6.121093-26.816407 6.121093-39.148438 0-7.828125-3.894531-17.023437-3.894531-24.851562 0-12.332031 6.121093-26.816407 6.121093-39.148438 0-7.828125-3.894531-17.023437-3.894531-24.851562 0-12.332031 6.121093-26.816407 6.121093-39.148438 0-7.828125-3.894531-17.023437-3.894531-24.851562 0l-16 8c-2.484375 1.242187-5.4375 1.105469-7.800781-.363281-2.359376-1.46875-3.789063-4.054688-3.773438-6.835938v-64c-.015625-3.046875 1.699219-5.839844 4.425781-7.199219l16-8c12.332031-6.121093 26.816407-6.121093 39.148438 0 7.828125 3.894531 17.023437 3.894531 24.851562 0 12.332031-6.121093 26.816407-6.121093 39.148438 0 7.828125 3.894531 17.023437 3.894531 24.851562 0 12.332031-6.121093 26.816407-6.121093 39.148438 0 7.828125 3.894531 17.023437 3.894531 24.851562 0l16-8c2.484375-1.242187 5.4375-1.105469 7.800781.363281 2.359376 1.46875 3.789063 4.054688 3.773438 6.835938zm29.304688-91.40625c-10.042969 12.609375-28.207032 15.128906-41.304688 5.734375-6.378906-4.515625-10.621094-11.460937-11.71875-19.199219-1.105469-7.613281.980469-15.339844 5.765625-21.359375 30.253906-38.652343 30.253906-92.949219 0-131.601562-4.773437-6.015625-6.855469-13.730469-5.757813-21.328125 1.101563-7.742188 5.34375-14.683594 11.726563-19.199219 13.101563-9.375 31.246094-6.855469 41.296875 5.734375 46.28125 59.089844 46.277344 142.132812-.007812 201.21875zm0 0" fill="#FFFFFF"/><path d="m212.128906 70.167969c22.421875 12.027343 40.550782 30.730469 51.871094 53.519531v-13.824219h16v16h-14.929688c12.265626 25.789063 15.140626 55.054688 8.128907 82.738281-.851563 3.214844-.339844 6.640626 1.417969 9.46875 1.847656 2.914063 4.8125 4.9375 8.199218 5.601563 2.910156.609375 5.9375.289063 8.65625-.917969 3.957032-1.679687 6.914063-5.097656 8-9.257812 16.671875-65.601563-13.5625-134.117188-73.265625-166.015625-1.964843-1.054688-4.164062-1.605469-6.398437-1.601563-5.050782 0-9.726563 2.667969-12.296875 7.015625-1.804688 2.957031-2.304688 6.527344-1.382813 9.867188.894532 3.1875 3.066406 5.867187 6 7.40625zm83.871094 111.695312h-16v-16h16zm-64-120h16v16h-16zm0 0" fill="#FFFFFF"/><path d="m200 408h16v16h-16zm0 0" fill="#FFFFFF"/></svg>
