<?xml version="1.0" encoding="iso-8859-1"?>
<!-- Generator: Adobe Illustrator 19.0.0, SVG Export Plug-In . SVG Version: 6.00 Build 0)  -->
<svg xmlns="http://www.w3.org/2000/svg" xmlns:xlink="http://www.w3.org/1999/xlink" version="1.1" id="Capa_1" x="0px" y="0px" viewBox="0 0 512 512" style="enable-background:new 0 0 512 512;" xml:space="preserve" width="512px" height="512px">
<g>
	<g>
		<path d="M422.079,291.968c-19.728-19.727-51.828-19.727-71.554,0l-29.861,29.861c-8.029,8.03-21.098,8.031-29.127,0    c-8.03-8.03-8.03-21.097-0.001-29.127l50.341-50.34c9.557-9.556,14.819-22.262,14.819-35.777s-5.263-26.221-14.819-35.776    c-19.727-19.729-51.827-19.727-71.554,0l-67.533,67.533c-0.93-0.601-1.892-1.155-2.883-1.662v-0.863v-35.84v-0.862    c10.694-5.465,18.02-16.58,18.02-29.414s-7.326-23.949-18.02-29.414v-35.342h38.909l9.952-44.262h-32.531L222.524,0H147.29    l6.287,60.685h-32.531l9.952,44.262h38.909v35.342c-10.694,5.465-18.021,16.58-18.021,29.414s7.327,23.949,18.021,29.414v0.862    v35.84v0.862c-10.694,5.465-18.021,16.58-18.021,29.414c0,3.721,0.625,7.294,1.76,10.632h-12.983v30h16.432v40.765    c-33.058,11.504-56.784,42.935-56.784,79.912V482H75.126v30h219.563v-30h-25.186v-54.596c0-36.977-23.727-68.408-56.784-79.912    v-40.765h16.433v-30h-12.983c1.135-3.337,1.759-6.911,1.759-10.632c0-0.152-0.009-0.301-0.011-0.452l73.62-73.62    c8.032-8.03,21.099-8.03,29.128,0c3.89,3.89,6.032,9.062,6.032,14.563c0,5.501-2.143,10.673-6.032,14.564l-50.341,50.34    c-19.727,19.727-19.727,51.826,0,71.554c19.727,19.728,51.827,19.726,71.554,0l29.861-29.861c8.029-8.03,21.098-8.031,29.127,0    c8.03,8.03,8.03,21.097,0.001,29.127l-19.255,19.255l-11.76-11.76l-21.213,21.214l11.76,11.76L340.2,402.975l21.213,21.213    l20.198-20.198l11.76,11.76l21.213-21.214l-11.76-11.76l19.255-19.255C441.806,343.795,441.806,311.696,422.079,291.968z" fill="#FFFFFF"/>
	</g>
</g>
<g>
</g>
<g>
</g>
<g>
</g>
<g>
</g>
<g>
</g>
<g>
</g>
<g>
</g>
<g>
</g>
<g>
</g>
<g>
</g>
<g>
</g>
<g>
</g>
<g>
</g>
<g>
</g>
<g>
</g>
</svg>
