<?xml version="1.0" encoding="iso-8859-1"?>
<!-- Generator: Adobe Illustrator 19.0.0, SVG Export Plug-In . SVG Version: 6.00 Build 0)  -->
<svg xmlns="http://www.w3.org/2000/svg" xmlns:xlink="http://www.w3.org/1999/xlink" version="1.1" id="Capa_1" x="0px" y="0px" viewBox="0 0 512 512" style="enable-background:new 0 0 512 512;" xml:space="preserve" width="512px" height="512px">
<g>
	<g>
		<path d="M504.485,119.917H369.784c6.687-1.499,12.509-3.303,16.968-5.486c33.319-16.306,49.93-51.021,37.026-77.387    C414.3,17.676,391.49,8.136,366.844,10.891c-8.356-7.294-19.408-11.011-31.694-10.533c-13.633,0.53-27.198,6.22-38.195,16.023    C282.034,29.681,265.343,69.639,256,94.416c-9.343-24.777-26.034-64.734-40.955-78.034C204.048,6.579,190.483,0.889,176.85,0.359    c-12.278-0.478-23.335,3.239-31.693,10.533C120.51,8.136,97.7,17.675,88.221,37.044c-12.903,26.365,3.707,61.081,37.026,77.386    c4.46,2.182,10.282,3.987,16.968,5.487H7.515c-4.151,0-7.515,3.365-7.515,7.515v88.172c0,4.15,3.364,7.515,7.515,7.515h32.564    v281.049c0,4.15,3.364,7.515,7.515,7.515h416.814c4.151,0,7.515-3.365,7.515-7.515V223.119h32.564    c4.151,0,7.515-3.365,7.515-7.515v-88.172C512,123.282,508.636,119.917,504.485,119.917z M470.312,134.947l-73.143,73.143h-74.932    l73.143-73.143H470.312z M380.582,51.328c1.441-9.307,0.341-18.186-3.08-25.945c14.709,0.548,27.222,6.916,32.778,18.268    c9.259,18.922-4.258,44.618-30.134,57.281c-13.518,6.615-44.883,9.437-73.82,10.472c21.4-6.502,43.835-14.936,53.964-23.967    C371.289,77.636,378.495,64.812,380.582,51.328z M306.955,27.601c8.401-7.489,18.621-11.83,28.779-12.225    c0.497-0.019,0.99-0.029,1.481-0.029c2.896,0,5.667,0.341,8.274,0.995c-1.855,0.749-3.702,1.56-5.536,2.457    c-16.981,8.31-41.691,35.367-60.943,58.652C287.864,56.532,298.41,35.218,306.955,27.601z M346.56,32.3    c4.858-2.378,9.812-4.129,14.716-5.28c4.163,6.004,5.741,13.697,4.455,22.009c-1.556,10.045-7.038,19.701-15.439,27.189    c-11.322,10.093-46.932,20.923-73.287,27.703C297.615,77.659,328.885,40.95,346.56,32.3z M263.515,134.947h14.421l-14.421,14.421    V134.947z M263.515,170.623l35.677-35.677h74.932l-73.143,73.143h-37.466V170.623z M204.793,208.089h-74.932l73.143-73.143h45.482    v29.451L204.793,208.089z M248.485,185.653v22.437h-22.437L248.485,185.653z M174.785,15.348c0.49,0,0.983,0.01,1.481,0.029    c10.158,0.395,20.378,4.736,28.779,12.225c8.545,7.617,19.09,28.931,27.945,49.85c-19.252-23.285-43.962-50.341-60.943-58.652    c-1.834-0.897-3.681-1.707-5.536-2.458C169.118,15.689,171.89,15.348,174.785,15.348z M150.723,27.021    c4.904,1.151,9.858,2.902,14.717,5.279c17.676,8.65,48.948,45.362,69.558,71.624c-26.352-6.778-61.959-17.606-73.289-27.706    c-8.401-7.489-13.883-17.144-15.439-27.189C144.983,40.716,146.561,33.024,150.723,27.021z M131.854,100.932    c-25.876-12.664-39.393-38.36-30.134-57.281c5.554-11.35,18.068-17.71,32.774-18.26c-3.419,7.757-4.518,16.633-3.077,25.937    c2.087,13.483,9.293,26.306,20.292,36.109c10.13,9.03,32.563,17.464,53.961,23.966    C176.732,110.369,145.377,107.55,131.854,100.932z M15.029,134.947H85.56l-70.531,70.531V134.947z M33.673,208.089l73.143-73.143    h74.932l-73.143,73.143H33.673z M55.108,496.653V223.119h193.378v17.276c-62.533,3.893-112.219,55.994-112.219,119.491    c0,66.022,53.712,119.734,119.734,119.734s119.734-53.713,119.734-119.734c0-28.131-9.95-55.468-28.019-76.974    c-2.668-3.177-7.409-3.589-10.587-0.92c-3.178,2.67-3.59,7.41-0.92,10.588c15.796,18.803,24.496,42.706,24.496,67.306    c0,57.735-46.971,104.704-104.705,104.704S151.295,417.62,151.295,359.886c0-57.734,46.971-104.705,104.705-104.705    c18.777,0,37.193,5.026,53.255,14.534c3.568,2.113,8.18,0.934,10.294-2.638c2.113-3.571,0.933-8.181-2.639-10.295    c-16.229-9.607-34.551-15.207-53.396-16.388v-17.276h193.378v273.534H55.108z M496.971,208.089h-78.546l73.143-73.143h5.404    V208.089z" fill="#FFFFFF"/>
	</g>
</g>
<g>
	<g>
		<path d="M309.408,306.479c-2.936-2.935-7.693-2.935-10.628,0l-96.188,96.188c-2.735,2.735-2.918,7.255-0.399,10.196    c2.81,3.282,7.971,3.487,11.028,0.431l96.188-96.188C312.342,314.171,312.342,309.412,309.408,306.479z" fill="#FFFFFF"/>
	</g>
</g>
<g>
	<g>
		<path d="M296.078,368.402c-12.983,0-23.546,10.563-23.546,23.546c0,12.983,10.563,23.546,23.546,23.546    c12.983,0,23.546-10.563,23.546-23.546C319.624,378.965,309.062,368.402,296.078,368.402z M296.078,400.465    c-4.696,0-8.517-3.82-8.517-8.517s3.82-8.517,8.517-8.517c4.696,0,8.517,3.82,8.517,8.517S300.774,400.465,296.078,400.465z" fill="#FFFFFF"/>
	</g>
</g>
<g>
	<g>
		<path d="M215.922,304.277c-12.983,0-23.546,10.563-23.546,23.546c0,12.983,10.563,23.546,23.546,23.546    c12.983,0,23.546-10.563,23.546-23.546C239.468,314.84,228.905,304.277,215.922,304.277z M215.922,336.34    c-4.696,0-8.517-3.82-8.517-8.517s3.82-8.517,8.517-8.517s8.517,3.82,8.517,8.517S220.618,336.34,215.922,336.34z" fill="#FFFFFF"/>
	</g>
</g>
<g>
</g>
<g>
</g>
<g>
</g>
<g>
</g>
<g>
</g>
<g>
</g>
<g>
</g>
<g>
</g>
<g>
</g>
<g>
</g>
<g>
</g>
<g>
</g>
<g>
</g>
<g>
</g>
<g>
</g>
</svg>
